<svg width="1200" height="373" viewBox="0 0 1200 373" fill="none" xmlns="http://www.w3.org/2000/svg">
<path d="M928.806 10.6826C928.098 10.6826 927.523 10.0294 927.523 9.22347C927.523 8.41758 928.098 7.76425 928.806 7.76425C929.515 7.76425 930.089 8.41758 930.089 9.22347C930.089 10.0294 929.515 10.6826 928.806 10.6826Z" fill="white"/>
<path d="M888.773 6.79766C888.773 7.32508 889.16 7.76458 889.634 7.76458C890.109 7.76458 890.495 7.32508 890.495 6.79766C890.495 6.27024 890.109 5.83075 889.634 5.83075C889.16 5.83075 888.773 6.27024 888.773 6.79766Z" fill="white"/>
<path d="M911.445 177.241C910.812 176.89 910.039 177.188 909.723 177.909C909.406 178.63 909.67 179.509 910.32 179.861C910.97 180.212 911.726 179.913 912.042 179.193C912.359 178.472 912.095 177.593 911.445 177.241Z" fill="white"/>
<path d="M880.936 45.1764C880.515 44.9479 879.987 45.1413 879.777 45.6159C879.566 46.0906 879.741 46.6708 880.163 46.9169C880.585 47.1454 881.112 46.952 881.323 46.4774C881.534 46.0027 881.358 45.4225 880.936 45.1764Z" fill="white"/>
<path d="M1060.85 152.367C1059.85 152.596 1059.18 153.686 1059.39 154.829C1059.58 155.971 1060.57 156.692 1061.57 156.481C1062.57 156.253 1063.24 155.163 1063.03 154.02C1062.83 152.895 1061.85 152.156 1060.85 152.367Z" fill="white"/>
<g opacity="0.64">
<path d="M955.475 103.053C955.528 102.702 955.317 102.385 955.019 102.315C954.72 102.262 954.421 102.491 954.368 102.825C954.316 103.177 954.527 103.493 954.825 103.563C955.124 103.634 955.423 103.388 955.475 103.053Z" fill="white"/>
<path d="M971.911 107.307C971.946 107.079 971.806 106.868 971.612 106.815C971.401 106.78 971.208 106.938 971.173 107.167C971.138 107.395 971.278 107.606 971.472 107.659C971.683 107.694 971.876 107.536 971.911 107.307Z" fill="white"/>
<path d="M1013.91 107.024C1014.37 107.393 1015 107.27 1015.32 106.76C1015.65 106.25 1015.55 105.547 1015.09 105.178C1014.64 104.809 1014 104.932 1013.69 105.441C1013.35 105.951 1013.46 106.655 1013.91 107.024Z" fill="white"/>
<path d="M949.829 59.7492C950.128 59.9953 950.549 59.925 950.778 59.5734C950.989 59.2393 950.936 58.7647 950.62 58.5186C950.321 58.2724 949.899 58.3427 949.671 58.6943C949.46 59.0284 949.513 59.503 949.829 59.7492Z" fill="white"/>
<path d="M922.155 66.009C922.594 66.009 922.946 65.5871 922.946 65.0773C922.946 64.5674 922.559 64.1807 922.12 64.1982C921.68 64.1982 921.329 64.6202 921.329 65.13C921.329 65.6398 921.716 66.0266 922.155 66.009Z" fill="white"/>
<path d="M1058.74 51.7707C1058.74 52.4036 1059.2 52.9134 1059.76 52.9134C1060.32 52.9134 1060.78 52.4036 1060.78 51.7707C1060.78 51.1377 1060.32 50.6279 1059.76 50.6279C1059.2 50.6279 1058.74 51.1377 1058.74 51.7707Z" fill="white"/>
<path d="M1095.31 130.672C1095.31 131.937 1096.23 132.957 1097.35 132.957C1098.48 132.957 1099.39 131.937 1099.39 130.672C1099.39 129.406 1098.48 128.386 1097.35 128.386C1096.23 128.386 1095.31 129.406 1095.31 130.672Z" fill="white"/>
</g>
<g opacity="0.64">
<path d="M63.6308 10.2671C63.455 10.0737 63.1738 10.0737 62.9981 10.2671C62.8223 10.4605 62.8223 10.7945 62.9981 10.9879C63.1738 11.1813 63.455 11.1813 63.6308 10.9879C63.8065 10.7945 63.8065 10.4605 63.6308 10.2671Z" fill="white"/>
</g>
<g opacity="0.64">
<path d="M527.2 117.805C527.481 118.104 527.956 118.174 528.255 117.928C528.553 117.699 528.571 117.26 528.272 116.943C527.991 116.644 527.517 116.574 527.218 116.82C526.919 117.049 526.902 117.488 527.2 117.805Z" fill="white"/>
<path d="M481.99 110.156C482.183 110.367 482.499 110.402 482.693 110.244C482.886 110.086 482.903 109.787 482.693 109.594C482.499 109.383 482.183 109.347 481.99 109.506C481.796 109.664 481.779 109.963 481.99 110.156Z" fill="white"/>
<path d="M526.101 167.699C525.714 167.769 525.486 168.138 525.609 168.525C525.732 168.912 526.154 169.14 526.54 169.07C526.927 169 527.155 168.63 527.032 168.244C526.909 167.857 526.488 167.628 526.101 167.699Z" fill="white"/>
<path d="M432.165 162.883C431.902 162.936 431.761 163.182 431.849 163.428C431.937 163.674 432.218 163.85 432.464 163.797C432.728 163.744 432.868 163.498 432.78 163.252C432.692 163.006 432.411 162.83 432.165 162.883Z" fill="white"/>
<path d="M588.594 115.169C588.26 115.591 588.366 116.224 588.858 116.593C589.35 116.962 590.017 116.927 590.351 116.505C590.685 116.083 590.58 115.45 590.088 115.081C589.596 114.712 588.928 114.747 588.594 115.169Z" fill="white"/>
</g>
<g opacity="0.64">
<path d="M309.519 164.651C309.256 164.95 309.238 165.424 309.519 165.723C309.8 166.022 310.204 166.04 310.486 165.723C310.749 165.424 310.767 164.95 310.486 164.651C310.222 164.352 309.8 164.334 309.519 164.651Z" fill="white"/>
<path d="M312.064 118.27C311.889 118.463 311.889 118.78 312.064 118.991C312.24 119.184 312.521 119.202 312.697 118.991C312.873 118.797 312.873 118.463 312.697 118.27C312.521 118.076 312.24 118.059 312.064 118.27Z" fill="white"/>
<path d="M258.484 152.853C258.361 152.449 257.992 152.238 257.623 152.361C257.272 152.484 257.079 152.923 257.184 153.328C257.307 153.732 257.676 153.943 258.045 153.82C258.397 153.697 258.59 153.257 258.484 152.853Z" fill="white"/>
<path d="M255.24 67.814C255.169 67.5503 254.906 67.4096 254.677 67.4975C254.449 67.5854 254.308 67.8667 254.396 68.148C254.466 68.4117 254.73 68.5524 254.958 68.4645C255.187 68.3766 255.327 68.0953 255.24 67.814Z" fill="white"/>
<path d="M298.511 207.347C298.071 206.995 297.456 207.136 297.158 207.628C296.859 208.121 296.964 208.806 297.404 209.158C297.843 209.509 298.458 209.369 298.757 208.877C299.055 208.384 298.95 207.699 298.511 207.347Z" fill="white"/>
</g>
<g opacity="0.64">
<path d="M439.941 48.8974C439.889 49.249 440.1 49.5654 440.398 49.6358C440.697 49.6885 440.996 49.46 441.048 49.126C441.101 48.7743 440.89 48.4579 440.592 48.3875C440.293 48.3172 439.994 48.5634 439.941 48.8974Z" fill="white"/>
<path d="M423.498 44.645C423.463 44.8735 423.604 45.0845 423.797 45.1372C424.008 45.1724 424.201 45.0142 424.236 44.7857C424.272 44.5571 424.131 44.3461 423.938 44.2934C423.727 44.2582 423.534 44.4164 423.498 44.645Z" fill="white"/>
<path d="M381.497 44.9433C381.04 44.5741 380.408 44.6971 380.091 45.207C379.757 45.7168 379.863 46.42 380.32 46.7892C380.777 47.1584 381.409 47.0354 381.726 46.5255C382.059 46.0157 381.954 45.3125 381.497 44.9433Z" fill="white"/>
<path d="M400.616 18.3775C400.318 18.1313 399.896 18.2017 399.667 18.5533C399.456 18.8873 399.509 19.362 399.826 19.6081C400.124 19.8543 400.546 19.7839 400.774 19.4323C401.003 19.0807 400.933 18.6236 400.616 18.3775Z" fill="white"/>
<path d="M484.493 99.3728C484.054 99.3728 483.703 99.7947 483.703 100.305C483.703 100.814 484.089 101.201 484.529 101.184C484.968 101.184 485.319 100.762 485.319 100.252C485.319 99.742 484.933 99.3552 484.493 99.3728Z" fill="white"/>
<path d="M351.298 160.03C350.735 160.03 350.278 159.518 350.278 158.887C350.278 158.256 350.735 157.744 351.298 157.744C351.861 157.744 352.317 158.256 352.317 158.887C352.317 159.518 351.861 160.03 351.298 160.03Z" fill="white"/>
<path d="M300.092 21.2792C300.092 20.0134 299.178 18.9937 298.053 18.9937C296.928 18.9937 296.015 20.0134 296.015 21.2792C296.015 22.545 296.928 23.5647 298.053 23.5647C299.178 23.5647 300.092 22.545 300.092 21.2792Z" fill="white"/>
</g>
<g opacity="0.64">
<path d="M1034.51 303.47C1034.42 303.136 1034.11 302.907 1033.81 302.978C1033.51 303.048 1033.33 303.364 1033.42 303.698C1033.51 304.033 1033.83 304.261 1034.13 304.191C1034.42 304.12 1034.6 303.804 1034.51 303.47Z" fill="white"/>
<path d="M1051.31 300.904C1051.26 300.676 1051.05 300.535 1050.83 300.57C1050.62 300.605 1050.52 300.834 1050.57 301.062C1050.62 301.291 1050.83 301.432 1051.05 301.396C1051.26 301.361 1051.36 301.133 1051.31 300.904Z" fill="white"/>
<path d="M1089.77 284.134C1090.34 284.292 1090.86 283.94 1090.97 283.342C1091.07 282.745 1090.69 282.129 1090.13 281.971C1089.56 281.813 1089.04 282.165 1088.93 282.762C1088.83 283.36 1089.21 283.975 1089.77 284.134Z" fill="white"/>
<path d="M1082.76 316.043C1083.13 316.148 1083.5 315.92 1083.55 315.516C1083.62 315.111 1083.36 314.707 1082.99 314.601C1082.62 314.496 1082.25 314.724 1082.2 315.129C1082.13 315.533 1082.39 315.937 1082.76 316.043Z" fill="white"/>
<path d="M973.535 274.64C973.939 274.447 974.097 273.937 973.886 273.48C973.676 273.023 973.183 272.812 972.779 272.987C972.375 273.181 972.217 273.691 972.428 274.148C972.639 274.605 973.131 274.816 973.535 274.64Z" fill="white"/>
<path d="M1071.32 167.976C1071.57 168.556 1072.2 168.855 1072.71 168.627C1073.22 168.398 1073.45 167.765 1073.18 167.185C1072.92 166.605 1072.3 166.306 1071.79 166.535C1071.28 166.763 1071.06 167.396 1071.32 167.976Z" fill="white"/>
</g>
<g opacity="0.64">
<path d="M416.984 284.971C416.844 284.215 416.317 283.705 415.825 283.863C415.333 284.004 415.034 284.76 415.192 285.516C415.35 286.272 415.86 286.781 416.352 286.623C416.844 286.465 417.142 285.727 416.984 284.971Z" fill="white"/>
<path d="M444.524 279.185C444.436 278.675 444.085 278.341 443.751 278.447C443.417 278.552 443.224 279.045 443.329 279.555C443.417 280.064 443.768 280.398 444.102 280.293C444.436 280.187 444.629 279.695 444.524 279.185Z" fill="white"/>
<path d="M507.629 241.162C508.543 241.531 509.421 240.722 509.579 239.369C509.738 238.015 509.123 236.626 508.209 236.257C507.295 235.888 506.416 236.696 506.258 238.05C506.1 239.404 506.715 240.793 507.629 241.162Z" fill="white"/>
<path d="M496.12 313.485C496.735 313.731 497.315 313.186 497.42 312.29C497.526 311.393 497.121 310.461 496.506 310.215C495.891 309.969 495.311 310.514 495.206 311.411C495.101 312.307 495.505 313.239 496.12 313.485Z" fill="white"/>
<path d="M223.869 257.071C224.537 256.649 224.8 255.471 224.449 254.434C224.097 253.396 223.289 252.904 222.621 253.326C221.953 253.748 221.69 254.926 222.041 255.963C222.393 257 223.201 257.493 223.869 257.071Z" fill="white"/>
</g>
<g opacity="0.64">
<path d="M713.821 176.151C714.12 175.957 714.225 175.588 714.067 175.325C713.909 175.061 713.54 174.99 713.241 175.184C712.942 175.377 712.837 175.746 712.995 176.01C713.153 176.274 713.522 176.344 713.821 176.151Z" fill="white"/>
<path d="M721.533 191.218C721.727 191.095 721.797 190.849 721.692 190.673C721.586 190.498 721.34 190.462 721.147 190.586C720.953 190.709 720.883 190.955 720.989 191.131C721.094 191.306 721.34 191.341 721.533 191.218Z" fill="white"/>
<path d="M749.653 222.264C749.67 222.844 750.18 223.231 750.778 223.143C751.375 223.055 751.849 222.493 751.814 221.912C751.797 221.332 751.287 220.946 750.69 221.033C750.092 221.121 749.618 221.684 749.653 222.264Z" fill="white"/>
<path d="M717.001 225.676C717.001 226.063 717.352 226.327 717.756 226.257C718.161 226.186 718.459 225.835 718.459 225.448C718.459 225.061 718.108 224.797 717.704 224.868C717.299 224.938 717.001 225.29 717.001 225.676Z" fill="white"/>
<path d="M722.122 109.502C722.42 109.819 722.983 109.819 723.352 109.467C723.721 109.133 723.773 108.588 723.475 108.254C723.176 107.937 722.614 107.938 722.245 108.289C721.876 108.623 721.823 109.168 722.122 109.502Z" fill="white"/>
<path d="M854.646 168.311C854.171 168.733 854.083 169.401 854.452 169.823C854.821 170.245 855.507 170.245 855.981 169.823C856.456 169.401 856.544 168.733 856.175 168.311C855.806 167.889 855.12 167.889 854.646 168.311Z" fill="white"/>
</g>
<g opacity="0.64">
<path d="M110.691 244.593C110.603 244.259 110.287 244.03 109.988 244.101C109.689 244.171 109.514 244.487 109.601 244.822C109.689 245.156 110.006 245.384 110.304 245.314C110.603 245.243 110.779 244.927 110.691 244.593Z" fill="white"/>
<path d="M127.486 242.045C127.433 241.817 127.222 241.676 127.011 241.711C126.8 241.747 126.695 241.975 126.748 242.204C126.8 242.432 127.011 242.573 127.222 242.538C127.433 242.502 127.538 242.274 127.486 242.045Z" fill="white"/>
<path d="M165.953 225.252C166.516 225.41 167.043 225.058 167.148 224.461C167.254 223.863 166.867 223.248 166.305 223.089C165.743 222.931 165.215 223.283 165.11 223.881C165.004 224.478 165.391 225.094 165.953 225.252Z" fill="white"/>
<path d="M49.7211 215.762C50.1252 215.568 50.2834 215.059 50.0725 214.601C49.8617 214.144 49.3696 213.933 48.9655 214.109C48.5613 214.303 48.4031 214.812 48.614 215.27C48.8249 215.727 49.3169 215.938 49.7211 215.762Z" fill="white"/>
</g>
<path d="M781.888 69.1725C781.378 68.0298 780.148 67.5727 779.129 68.1528C778.11 68.733 777.706 70.1219 778.215 71.2646C778.725 72.4074 779.955 72.8644 780.974 72.2843C781.993 71.7041 782.397 70.3153 781.888 69.1725Z" fill="white"/>
<path d="M635.225 70.5267C635.946 70.5267 636.508 69.8586 636.508 69.0499C636.508 68.2412 635.91 67.6083 635.208 67.6083C634.487 67.6083 633.925 68.2763 633.925 69.085C633.925 69.8938 634.522 70.5267 635.225 70.5267Z" fill="white"/>
<path d="M773.51 116.395C773.985 116.395 774.371 115.956 774.354 115.411C774.354 114.883 773.95 114.444 773.475 114.461C773.001 114.461 772.614 114.901 772.632 115.446C772.632 115.973 773.036 116.413 773.51 116.395Z" fill="white"/>
<path d="M481.526 123.602C481.069 122.582 479.962 122.178 479.048 122.688C478.134 123.197 477.783 124.446 478.24 125.465C478.697 126.485 479.804 126.889 480.717 126.38C481.631 125.87 481.983 124.621 481.526 123.602Z" fill="white"/>
<path d="M339.508 250.393C340.035 250.393 340.457 249.901 340.457 249.303C340.457 248.705 340.017 248.23 339.49 248.23C338.963 248.23 338.541 248.723 338.541 249.32C338.541 249.918 338.98 250.393 339.508 250.393Z" fill="white"/>
<path d="M398.701 70.8276C399.72 70.8276 400.528 69.8782 400.51 68.7355C400.51 67.5927 399.667 66.6785 398.648 66.6961C397.629 66.7137 396.82 67.6455 396.838 68.7882C396.838 69.931 397.681 70.8452 398.701 70.8276Z" fill="white"/>
<path d="M59.5803 132.255C60.0548 131.833 60.1427 131.059 59.7737 130.532C59.4047 130.004 58.7193 129.899 58.2449 130.321C57.7704 130.743 57.6825 131.516 58.0515 132.044C58.4205 132.571 59.1059 132.677 59.5803 132.255Z" fill="white"/>
<path d="M222.385 372.999C222.912 372.999 223.334 372.507 223.334 371.909C223.334 371.311 222.894 370.837 222.367 370.837C221.84 370.837 221.418 371.329 221.418 371.927C221.418 372.524 221.857 372.999 222.385 372.999Z" fill="white"/>
<path d="M267.507 182.883C268.526 182.883 269.335 181.934 269.317 180.791C269.317 179.648 268.473 178.734 267.454 178.751C266.435 178.769 265.627 179.701 265.644 180.844C265.644 181.986 266.488 182.9 267.507 182.883Z" fill="white"/>
</svg>
